<mxfile host="app.diagrams.net" agent="Mozilla/5.0 (Windows NT 10.0; Win64; x64) AppleWebKit/537.36 (KHTML, like Gecko) Chrome/138.0.0.0 Safari/537.36" version="28.0.6">
  <diagram name="PÃ¡gina-1" id="6w0HcJUquY7AsTLg5KEx">
    <mxGraphModel grid="1" page="1" gridSize="10" guides="1" tooltips="1" connect="1" arrows="1" fold="1" pageScale="1" pageWidth="827" pageHeight="1169" math="0" shadow="0">
      <root>
        <mxCell id="0" />
        <mxCell id="1" parent="0" />
        <mxCell id="fzp0T0v13jPsV7E8GPey-1" value="" style="html=1;verticalAlign=bottom;startArrow=oval;startFill=1;endArrow=block;startSize=8;curved=0;rounded=0;" edge="1" parent="1">
          <mxGeometry width="60" relative="1" as="geometry">
            <mxPoint x="530" y="200" as="sourcePoint" />
            <mxPoint x="530" y="280" as="targetPoint" />
          </mxGeometry>
        </mxCell>
        <mxCell id="fzp0T0v13jPsV7E8GPey-2" style="edgeStyle=orthogonalEdgeStyle;rounded=0;orthogonalLoop=1;jettySize=auto;html=1;" edge="1" parent="1" source="fzp0T0v13jPsV7E8GPey-3" target="fzp0T0v13jPsV7E8GPey-6">
          <mxGeometry relative="1" as="geometry" />
        </mxCell>
        <mxCell id="fzp0T0v13jPsV7E8GPey-3" value="Ref" style="shape=umlFrame;whiteSpace=wrap;html=1;pointerEvents=0;" vertex="1" parent="1">
          <mxGeometry x="420" y="280" width="250" height="90" as="geometry" />
        </mxCell>
        <mxCell id="fzp0T0v13jPsV7E8GPey-4" value="Buacar&amp;nbsp; perfil" style="text;html=1;align=center;verticalAlign=middle;resizable=0;points=[];autosize=1;strokeColor=none;fillColor=none;" vertex="1" parent="1">
          <mxGeometry x="485" y="318" width="90" height="30" as="geometry" />
        </mxCell>
        <mxCell id="fzp0T0v13jPsV7E8GPey-5" style="edgeStyle=orthogonalEdgeStyle;rounded=0;orthogonalLoop=1;jettySize=auto;html=1;" edge="1" parent="1" source="fzp0T0v13jPsV7E8GPey-6" target="fzp0T0v13jPsV7E8GPey-9">
          <mxGeometry relative="1" as="geometry" />
        </mxCell>
        <mxCell id="fzp0T0v13jPsV7E8GPey-6" value="Ref" style="shape=umlFrame;whiteSpace=wrap;html=1;pointerEvents=0;" vertex="1" parent="1">
          <mxGeometry x="420" y="460" width="250" height="90" as="geometry" />
        </mxCell>
        <mxCell id="fzp0T0v13jPsV7E8GPey-7" value="Ve el apratado de perfil" style="text;html=1;align=center;verticalAlign=middle;resizable=0;points=[];autosize=1;strokeColor=none;fillColor=none;" vertex="1" parent="1">
          <mxGeometry x="455" y="498" width="150" height="30" as="geometry" />
        </mxCell>
        <mxCell id="fzp0T0v13jPsV7E8GPey-8" style="edgeStyle=orthogonalEdgeStyle;rounded=0;orthogonalLoop=1;jettySize=auto;html=1;" edge="1" parent="1" source="fzp0T0v13jPsV7E8GPey-9">
          <mxGeometry relative="1" as="geometry">
            <mxPoint x="745" y="720" as="targetPoint" />
          </mxGeometry>
        </mxCell>
        <mxCell id="fzp0T0v13jPsV7E8GPey-9" value="" style="rhombus;whiteSpace=wrap;html=1;" vertex="1" parent="1">
          <mxGeometry x="513.5" y="630" width="63" height="50" as="geometry" />
        </mxCell>
        <mxCell id="fzp0T0v13jPsV7E8GPey-10" style="edgeStyle=orthogonalEdgeStyle;rounded=0;orthogonalLoop=1;jettySize=auto;html=1;" edge="1" parent="1" source="fzp0T0v13jPsV7E8GPey-11" target="fzp0T0v13jPsV7E8GPey-18">
          <mxGeometry relative="1" as="geometry">
            <mxPoint x="454.9999999999998" y="1019.9999999999998" as="sourcePoint" />
          </mxGeometry>
        </mxCell>
        <mxCell id="fzp0T0v13jPsV7E8GPey-11" value="Sd actualisacion" style="shape=umlFrame;whiteSpace=wrap;html=1;pointerEvents=0;" vertex="1" parent="1">
          <mxGeometry x="100" y="720" width="370" height="230" as="geometry" />
        </mxCell>
        <mxCell id="fzp0T0v13jPsV7E8GPey-12" value="actualizar datos&amp;nbsp;" style="text;html=1;align=center;verticalAlign=middle;resizable=0;points=[];autosize=1;strokeColor=none;fillColor=none;" vertex="1" parent="1">
          <mxGeometry x="220" y="800" width="110" height="30" as="geometry" />
        </mxCell>
        <mxCell id="fzp0T0v13jPsV7E8GPey-13" style="edgeStyle=orthogonalEdgeStyle;rounded=0;orthogonalLoop=1;jettySize=auto;html=1;entryX=0.5;entryY=0;entryDx=0;entryDy=0;exitX=0.515;exitY=1.008;exitDx=0;exitDy=0;exitPerimeter=0;" edge="1" parent="1" target="fzp0T0v13jPsV7E8GPey-18" source="fzp0T0v13jPsV7E8GPey-22">
          <mxGeometry relative="1" as="geometry">
            <mxPoint x="620" y="765" as="sourcePoint" />
            <Array as="points">
              <mxPoint x="842" y="1000" />
              <mxPoint x="525" y="1000" />
            </Array>
          </mxGeometry>
        </mxCell>
        <mxCell id="fzp0T0v13jPsV7E8GPey-14" value="eliminar cuenta&amp;nbsp;" style="text;html=1;align=center;verticalAlign=middle;resizable=0;points=[];autosize=1;strokeColor=none;fillColor=none;" vertex="1" parent="1">
          <mxGeometry x="770" y="820" width="110" height="30" as="geometry" />
        </mxCell>
        <mxCell id="fzp0T0v13jPsV7E8GPey-15" value="Ref" style="shape=umlFrame;whiteSpace=wrap;html=1;pointerEvents=0;" vertex="1" parent="1">
          <mxGeometry x="405" y="1165" width="250" height="90" as="geometry" />
        </mxCell>
        <mxCell id="fzp0T0v13jPsV7E8GPey-16" value="envia una notificacion&amp;nbsp;" style="text;html=1;align=center;verticalAlign=middle;resizable=0;points=[];autosize=1;strokeColor=none;fillColor=none;" vertex="1" parent="1">
          <mxGeometry x="458" y="1195" width="140" height="30" as="geometry" />
        </mxCell>
        <mxCell id="fzp0T0v13jPsV7E8GPey-17" style="edgeStyle=orthogonalEdgeStyle;rounded=0;orthogonalLoop=1;jettySize=auto;html=1;entryX=0.447;entryY=0.013;entryDx=0;entryDy=0;entryPerimeter=0;" edge="1" parent="1" source="fzp0T0v13jPsV7E8GPey-9" target="fzp0T0v13jPsV7E8GPey-11">
          <mxGeometry relative="1" as="geometry" />
        </mxCell>
        <mxCell id="fzp0T0v13jPsV7E8GPey-18" value="" style="rounded=0;whiteSpace=wrap;html=1;" vertex="1" parent="1">
          <mxGeometry x="465" y="1045" width="120" height="20" as="geometry" />
        </mxCell>
        <mxCell id="fzp0T0v13jPsV7E8GPey-19" style="edgeStyle=orthogonalEdgeStyle;rounded=0;orthogonalLoop=1;jettySize=auto;html=1;entryX=0.479;entryY=0.042;entryDx=0;entryDy=0;entryPerimeter=0;" edge="1" parent="1" source="fzp0T0v13jPsV7E8GPey-18" target="fzp0T0v13jPsV7E8GPey-15">
          <mxGeometry relative="1" as="geometry" />
        </mxCell>
        <mxCell id="fzp0T0v13jPsV7E8GPey-20" style="edgeStyle=orthogonalEdgeStyle;rounded=0;orthogonalLoop=1;jettySize=auto;html=1;entryX=0.51;entryY=0.007;entryDx=0;entryDy=0;entryPerimeter=0;" edge="1" parent="1" source="fzp0T0v13jPsV7E8GPey-15">
          <mxGeometry relative="1" as="geometry">
            <mxPoint x="530.5" y="1385.63" as="targetPoint" />
          </mxGeometry>
        </mxCell>
        <mxCell id="fzp0T0v13jPsV7E8GPey-21" value="" style="ellipse;html=1;shape=endState;fillColor=#000000;strokeColor=#ff0000;" vertex="1" parent="1">
          <mxGeometry x="513" y="1385" width="30" height="30" as="geometry" />
        </mxCell>
        <mxCell id="fzp0T0v13jPsV7E8GPey-22" value="Sd eliminacion" style="shape=umlFrame;whiteSpace=wrap;html=1;pointerEvents=0;" vertex="1" parent="1">
          <mxGeometry x="620" y="720" width="430" height="230" as="geometry" />
        </mxCell>
        <mxCell id="DkrW_zTifkCjL4jqP2us-1" value="usuario" style="shape=umlLifeline;perimeter=lifelinePerimeter;whiteSpace=wrap;html=1;container=1;dropTarget=0;collapsible=0;recursiveResize=0;outlineConnect=0;portConstraint=eastwest;newEdgeStyle={&quot;curved&quot;:0,&quot;rounded&quot;:0};" vertex="1" parent="1">
          <mxGeometry x="120" y="758" width="80" height="192" as="geometry" />
        </mxCell>
        <mxCell id="DkrW_zTifkCjL4jqP2us-2" value="sistema" style="shape=umlLifeline;perimeter=lifelinePerimeter;whiteSpace=wrap;html=1;container=1;dropTarget=0;collapsible=0;recursiveResize=0;outlineConnect=0;portConstraint=eastwest;newEdgeStyle={&quot;curved&quot;:0,&quot;rounded&quot;:0};" vertex="1" parent="1">
          <mxGeometry x="340" y="750" width="80" height="192" as="geometry" />
        </mxCell>
        <mxCell id="DkrW_zTifkCjL4jqP2us-6" value="" style="html=1;points=[[0,0,0,0,5],[0,1,0,0,-5],[1,0,0,0,5],[1,1,0,0,-5]];perimeter=orthogonalPerimeter;outlineConnect=0;targetShapes=umlLifeline;portConstraint=eastwest;newEdgeStyle={&quot;curved&quot;:0,&quot;rounded&quot;:0};" vertex="1" parent="DkrW_zTifkCjL4jqP2us-2">
          <mxGeometry x="35" y="80" width="10" height="80" as="geometry" />
        </mxCell>
        <mxCell id="DkrW_zTifkCjL4jqP2us-3" value="usuario" style="shape=umlLifeline;perimeter=lifelinePerimeter;whiteSpace=wrap;html=1;container=1;dropTarget=0;collapsible=0;recursiveResize=0;outlineConnect=0;portConstraint=eastwest;newEdgeStyle={&quot;curved&quot;:0,&quot;rounded&quot;:0};" vertex="1" parent="1">
          <mxGeometry x="650" y="758" width="80" height="192" as="geometry" />
        </mxCell>
        <mxCell id="DkrW_zTifkCjL4jqP2us-4" value="sistema" style="shape=umlLifeline;perimeter=lifelinePerimeter;whiteSpace=wrap;html=1;container=1;dropTarget=0;collapsible=0;recursiveResize=0;outlineConnect=0;portConstraint=eastwest;newEdgeStyle={&quot;curved&quot;:0,&quot;rounded&quot;:0};" vertex="1" parent="1">
          <mxGeometry x="930" y="750" width="80" height="192" as="geometry" />
        </mxCell>
        <mxCell id="DkrW_zTifkCjL4jqP2us-8" value="" style="html=1;points=[[0,0,0,0,5],[0,1,0,0,-5],[1,0,0,0,5],[1,1,0,0,-5]];perimeter=orthogonalPerimeter;outlineConnect=0;targetShapes=umlLifeline;portConstraint=eastwest;newEdgeStyle={&quot;curved&quot;:0,&quot;rounded&quot;:0};" vertex="1" parent="DkrW_zTifkCjL4jqP2us-4">
          <mxGeometry x="30" y="90" width="10" height="80" as="geometry" />
        </mxCell>
        <mxCell id="DkrW_zTifkCjL4jqP2us-7" value="" style="html=1;verticalAlign=bottom;startArrow=oval;endArrow=block;startSize=8;curved=0;rounded=0;entryX=0;entryY=0;entryDx=0;entryDy=5;" edge="1" parent="1" target="DkrW_zTifkCjL4jqP2us-6">
          <mxGeometry relative="1" as="geometry">
            <mxPoint x="180" y="835" as="sourcePoint" />
          </mxGeometry>
        </mxCell>
        <mxCell id="DkrW_zTifkCjL4jqP2us-9" value="" style="html=1;verticalAlign=bottom;startArrow=oval;endArrow=block;startSize=8;curved=0;rounded=0;entryX=0;entryY=0;entryDx=0;entryDy=5;" edge="1" parent="1" source="DkrW_zTifkCjL4jqP2us-3" target="DkrW_zTifkCjL4jqP2us-8">
          <mxGeometry relative="1" as="geometry">
            <mxPoint x="890" y="845" as="sourcePoint" />
          </mxGeometry>
        </mxCell>
      </root>
    </mxGraphModel>
  </diagram>
</mxfile>
